<svg width="71" height="71" viewBox="0 0 71 71" fill="none" xmlns="http://www.w3.org/2000/svg">
<circle cx="35.5" cy="35.5" r="35.5" fill="#F7F8FC"/>
<g clip-path="url(#clip0_7_34)">
<path d="M53.4163 23.8259L35.2548 15.0582C35.0938 14.9805 34.9063 14.9805 34.7453 15.0582L16.5837 23.8259C16.3812 23.9236 16.2525 24.1287 16.2525 24.3535V45.6464C16.2525 45.8712 16.3812 46.0763 16.5837 46.1741L34.7453 54.9417C34.8257 54.9805 34.9129 55 35 55C35.0871 55 35.1742 54.9805 35.2548 54.9417L53.4163 46.1741C53.6188 46.0763 53.7475 45.8712 53.7475 45.6464V24.3536C53.7475 24.1286 53.6188 23.9237 53.4163 23.8259ZM35 16.2366L51.8138 24.3535L46.9399 26.7065C46.909 26.683 46.8764 26.6613 46.8406 26.644L30.141 18.5823L35 16.2366ZM28.8178 19.2448L45.6071 27.3499L42.1685 29.01L25.386 20.9081L28.8178 19.2448ZM45.9999 28.4615V34.5979L42.788 36.1485V30.0121L45.9999 28.4615ZM52.5756 45.2787L35.586 53.4805V33.4889L39.6385 31.5325C39.9299 31.3918 40.0521 31.0416 39.9114 30.7501C39.7707 30.4588 39.4205 30.3364 39.129 30.4772L35 32.4705L33.3753 31.6862C33.0838 31.5453 32.7336 31.6677 32.5929 31.9591C32.4522 32.2505 32.5744 32.6008 32.8658 32.7415L34.4141 33.4889V53.4805L17.4244 45.2786V25.287L30.3619 31.5327C30.444 31.5724 30.5308 31.5912 30.6162 31.5912C30.834 31.5912 31.0432 31.4691 31.1442 31.2598C31.2849 30.9684 31.1628 30.6181 30.8713 30.4774L18.1862 24.3535L24.0069 21.5435L41.608 30.0406C41.6106 30.0442 41.6135 30.0474 41.6161 30.0509V37.0821C41.6161 37.2838 41.7198 37.4712 41.8906 37.5784C41.9854 37.638 42.0936 37.668 42.2021 37.668C42.289 37.668 42.3761 37.6487 42.4568 37.6098L46.8406 35.4934C47.0431 35.3957 47.1718 35.1907 47.1718 34.9658V27.8959L52.5756 25.2871V45.2787V45.2787Z" fill="#C8C8C8"/>
<path d="M22.2599 43.0062L19.5946 41.7195C19.3031 41.5787 18.9529 41.701 18.8122 41.9924C18.6715 42.2838 18.7937 42.6341 19.0851 42.7748L21.7503 44.0615C21.8324 44.1012 21.9192 44.1199 22.0046 44.1199C22.2224 44.1199 22.4317 43.9979 22.5327 43.7886C22.6735 43.4971 22.5513 43.147 22.2599 43.0062Z" fill="#C8C8C8"/>
<path d="M24.7127 41.4095L19.5983 38.9405C19.3068 38.7998 18.9566 38.922 18.8159 39.2134C18.6752 39.5048 18.7974 39.8552 19.0888 39.9959L24.2033 42.4649C24.2854 42.5045 24.3722 42.5233 24.4576 42.5233C24.6754 42.5233 24.8846 42.4013 24.9856 42.192C25.1263 41.9005 25.0041 41.5501 24.7127 41.4095Z" fill="#C8C8C8"/>
</g>
<defs>
<clipPath id="clip0_7_34">
<rect width="40" height="40" fill="white" transform="translate(15 15)"/>
</clipPath>
</defs>
</svg>
