<svg width="71" height="71" viewBox="0 0 71 71" fill="none" xmlns="http://www.w3.org/2000/svg">
<rect width="71" height="71" fill="white"/>
<circle cx="35.5" cy="35.5" r="35" fill="#A6CE3A" stroke="#0019F5"/>
<path d="M21.3661 22.0234H23.9245C24.2481 22.0234 24.5105 21.7611 24.5105 21.4375C24.5105 21.1139 24.2481 20.8516 23.9245 20.8516H21.3661C21.0425 20.8516 20.7802 21.1139 20.7802 21.4375C20.7802 21.7611 21.0425 22.0234 21.3661 22.0234V22.0234Z" fill="white"/>
<path d="M21.3661 25.1441H23.9245C24.2481 25.1441 24.5105 24.8818 24.5105 24.5582C24.5105 24.2346 24.2481 23.9723 23.9245 23.9723H21.3661C21.0425 23.9723 20.7802 24.2346 20.7802 24.5582C20.7802 24.8818 21.0425 25.1441 21.3661 25.1441V25.1441Z" fill="white"/>
<path d="M33.7208 22.0234H36.2791C36.6027 22.0234 36.8651 21.7611 36.8651 21.4375C36.8651 21.1139 36.6027 20.8516 36.2791 20.8516H33.7208C33.3972 20.8516 33.1348 21.1139 33.1348 21.4375C33.1348 21.7611 33.3972 22.0234 33.7208 22.0234V22.0234Z" fill="white"/>
<path d="M33.7208 25.1441H36.2791C36.6027 25.1441 36.8651 24.8818 36.8651 24.5582C36.8651 24.2346 36.6027 23.9723 36.2791 23.9723H33.7208C33.3972 23.9723 33.1348 24.2346 33.1348 24.5582C33.1348 24.8818 33.3972 25.1441 33.7208 25.1441V25.1441Z" fill="white"/>
<path d="M46.0755 22.0234H48.6338C48.9574 22.0234 49.2198 21.7611 49.2198 21.4375C49.2198 21.1139 48.9574 20.8516 48.6338 20.8516H46.0755C45.7519 20.8516 45.4895 21.1139 45.4895 21.4375C45.4895 21.7611 45.7519 22.0234 46.0755 22.0234Z" fill="white"/>
<path d="M46.0755 25.1441H48.6338C48.9574 25.1441 49.2198 24.8818 49.2198 24.5582C49.2198 24.2346 48.9574 23.9723 48.6338 23.9723H46.0755C45.7519 23.9723 45.4895 24.2346 45.4895 24.5582C45.4895 24.8818 45.7519 25.1441 46.0755 25.1441Z" fill="white"/>
<path d="M32.3901 34.9581H37.6099C38.4168 34.9581 39.0732 34.3017 39.0732 33.4949V19.0955C39.0732 18.2886 38.4168 17.6323 37.6099 17.6323H32.3901C31.5833 17.6323 30.9269 18.2887 30.9269 19.0955V33.4949C30.9269 34.3017 31.5833 34.9581 32.3901 34.9581ZM32.0987 19.0955C32.0987 18.9348 32.2294 18.8041 32.3901 18.8041H37.6099C37.7706 18.8041 37.9013 18.9348 37.9013 19.0955V33.4949C37.9013 33.6556 37.7706 33.7863 37.6099 33.7863H32.3901C32.2294 33.7863 32.0987 33.6555 32.0987 33.4949V19.0955Z" fill="white"/>
<path d="M51.561 15H43.1483C42.3559 15 41.6467 15.3623 41.1773 15.9298C40.708 15.3623 39.9987 15 39.2064 15H30.7936C30.0013 15 29.292 15.3623 28.8227 15.9298C28.3533 15.3623 27.6441 15 26.8517 15H18.439C17.0291 15 15.8821 16.147 15.8821 17.5569V52.4431C15.8821 53.853 17.0291 55 18.439 55H26.8518C27.6441 55 28.3534 54.6377 28.8227 54.0702C29.2921 54.6377 30.0013 55 30.7937 55H39.2065C39.9988 55 40.7081 54.6377 41.1774 54.0702C41.6468 54.6377 42.356 55 43.1484 55H51.5612C52.971 55 54.1181 53.853 54.1181 52.4431V17.5569C54.1179 16.147 52.9709 15 51.561 15V15ZM26.8517 53.8281H18.439C17.6753 53.8281 17.054 53.2068 17.054 52.4431V17.5569C17.054 16.7932 17.6752 16.1719 18.439 16.1719H26.8518C27.6155 16.1719 28.2368 16.7932 28.2368 17.5569V52.4431C28.2367 53.2068 27.6155 53.8281 26.8517 53.8281ZM39.2064 53.8281H30.7936C30.0299 53.8281 29.4086 53.2068 29.4086 52.4431V17.5569C29.4086 16.7932 30.0299 16.1719 30.7936 16.1719H39.2064C39.9701 16.1719 40.5914 16.7932 40.5914 17.5569V52.4431C40.5914 53.2068 39.9701 53.8281 39.2064 53.8281ZM52.946 52.4431C52.946 53.2068 52.3247 53.8281 51.561 53.8281H43.1483C42.3846 53.8281 41.7633 53.2068 41.7633 52.4431V17.5569C41.7633 16.7932 42.3846 16.1719 43.1483 16.1719H51.5611C52.3248 16.1719 52.9461 16.7932 52.9461 17.5569V52.4431H52.946Z" fill="white"/>
<path d="M44.7448 34.9581H49.9645C50.7714 34.9581 51.4277 34.3017 51.4277 33.4949V19.0955C51.4277 18.2886 50.7713 17.6323 49.9645 17.6323H44.7448C43.9379 17.6323 43.2816 18.2887 43.2816 19.0955V29.0092C43.2816 29.3328 43.5439 29.5952 43.8675 29.5952C44.1911 29.5952 44.4534 29.3328 44.4534 29.0092V19.0955C44.4534 18.9348 44.5841 18.8041 44.7448 18.8041H49.9645C50.1252 18.8041 50.2559 18.9348 50.2559 19.0955V33.4949C50.2559 33.6556 50.1252 33.7863 49.9645 33.7863H44.7448C44.5841 33.7863 44.4534 33.6555 44.4534 33.4949V31.7484C44.4534 31.4248 44.1911 31.1624 43.8675 31.1624C43.5439 31.1624 43.2816 31.4248 43.2816 31.7484V33.4949C43.2816 34.3017 43.938 34.9581 44.7448 34.9581Z" fill="white"/>
<path d="M20.0355 34.9581H25.2552C26.0621 34.9581 26.7184 34.3017 26.7184 33.4949V19.0955C26.7184 18.2886 26.062 17.6323 25.2552 17.6323H20.0355C19.2286 17.6323 18.5723 18.2887 18.5723 19.0955V20.5838C18.5723 20.9074 18.8346 21.1698 19.1582 21.1698C19.4818 21.1698 19.7441 20.9074 19.7441 20.5838V19.0955C19.7441 18.9348 19.8748 18.8041 20.0355 18.8041H25.2552C25.4159 18.8041 25.5466 18.9348 25.5466 19.0955V33.4949C25.5466 33.6556 25.4159 33.7863 25.2552 33.7863H20.0355C19.8748 33.7863 19.7441 33.6555 19.7441 33.4949V23.3502C19.7441 23.0266 19.4818 22.7642 19.1582 22.7642C18.8346 22.7642 18.5723 23.0266 18.5723 23.3502V33.4949C18.5722 34.3017 19.2286 34.9581 20.0355 34.9581Z" fill="white"/>
<path d="M22.6453 42.6584C20.1341 42.6584 18.0911 44.7013 18.0911 47.2125C18.0911 49.7237 20.1341 51.7666 22.6453 51.7666C25.1565 51.7666 27.1994 49.7237 27.1994 47.2125C27.1994 44.7013 25.1565 42.6584 22.6453 42.6584V42.6584ZM22.6453 50.5948C20.7803 50.5948 19.263 49.0775 19.263 47.2125C19.263 45.3475 20.7803 43.8302 22.6453 43.8302C24.5103 43.8302 26.0276 45.3475 26.0276 47.2125C26.0276 49.0775 24.5103 50.5948 22.6453 50.5948V50.5948Z" fill="white"/>
<path d="M22.6453 44.8229C21.3276 44.8229 20.2557 45.8948 20.2557 47.2125C20.2557 48.5302 21.3276 49.6021 22.6453 49.6021C23.9629 49.6021 25.0349 48.5301 25.0349 47.2125C25.0349 45.8949 23.9629 44.8229 22.6453 44.8229ZM22.6453 48.4303C21.9738 48.4303 21.4276 47.884 21.4276 47.2126C21.4276 46.5412 21.9738 45.9948 22.6453 45.9948C23.3168 45.9948 23.863 46.5411 23.863 47.2126C23.863 47.8841 23.3168 48.4303 22.6453 48.4303Z" fill="white"/>
<path d="M35 42.6584C32.4888 42.6584 30.4458 44.7013 30.4458 47.2125C30.4458 49.7237 32.4888 51.7666 35 51.7666C37.5112 51.7666 39.5541 49.7237 39.5541 47.2125C39.5541 44.7013 37.5112 42.6584 35 42.6584ZM35 50.5948C33.135 50.5948 31.6177 49.0775 31.6177 47.2125C31.6177 45.3475 33.135 43.8302 35 43.8302C36.865 43.8302 38.3822 45.3475 38.3822 47.2125C38.3822 49.0775 36.865 50.5948 35 50.5948Z" fill="white"/>
<path d="M35 44.8229C33.6824 44.8229 32.6104 45.8948 32.6104 47.2125C32.6104 48.5302 33.6824 49.6021 35 49.6021C36.3177 49.6021 37.3896 48.5301 37.3896 47.2125C37.3896 45.8949 36.3177 44.8229 35 44.8229ZM35 48.4303C34.3285 48.4303 33.7823 47.884 33.7823 47.2126C33.7823 46.5412 34.3285 45.9948 35 45.9948C35.6715 45.9948 36.2177 46.5411 36.2177 47.2126C36.2177 47.8841 35.6715 48.4303 35 48.4303Z" fill="white"/>
<path d="M47.3547 42.6584C44.8435 42.6584 42.8006 44.7013 42.8006 47.2125C42.8006 49.7237 44.8435 51.7666 47.3547 51.7666C49.8659 51.7666 51.9088 49.7237 51.9088 47.2125C51.9088 44.7013 49.8659 42.6584 47.3547 42.6584ZM47.3547 50.5948C45.4897 50.5948 43.9724 49.0775 43.9724 47.2125C43.9724 45.3475 45.4897 43.8302 47.3547 43.8302C49.2197 43.8302 50.737 45.3475 50.737 47.2125C50.737 49.0775 49.2196 50.5948 47.3547 50.5948Z" fill="white"/>
<path d="M47.3547 44.8229C46.037 44.8229 44.9651 45.8948 44.9651 47.2125C44.9651 48.5302 46.037 49.6021 47.3547 49.6021C48.6724 49.6021 49.7443 48.5301 49.7443 47.2125C49.7443 45.8949 48.6723 44.8229 47.3547 44.8229ZM47.3547 48.4303C46.6832 48.4303 46.137 47.884 46.137 47.2126C46.137 46.5412 46.6832 45.9948 47.3547 45.9948C48.0262 45.9948 48.5724 46.5411 48.5724 47.2126C48.5724 47.8841 48.0261 48.4303 47.3547 48.4303Z" fill="white"/>
</svg>
