<svg width="71" height="71" viewBox="0 0 71 71" fill="none" xmlns="http://www.w3.org/2000/svg">
<rect width="71" height="71" fill="white"/>
<ellipse cx="35.5" cy="35" rx="35.5" ry="35" fill="#F7F8FC"/>
<g clip-path="url(#clip0_3_20)">
<path d="M53.4163 23.6052L35.2548 15.0567C35.0938 14.981 34.9063 14.981 34.7453 15.0567L16.5837 23.6052C16.3812 23.7005 16.2525 23.9005 16.2525 24.1197V44.8802C16.2525 45.0995 16.3812 45.2994 16.5837 45.3947L34.7452 53.9432C34.8257 53.981 34.9129 54 35 54C35.0871 54 35.1742 53.981 35.2548 53.9432L53.4163 45.3947C53.6188 45.2994 53.7475 45.0995 53.7475 44.8802V24.1198C53.7475 23.9004 53.6188 23.7006 53.4163 23.6052ZM35 16.2056L51.8138 24.1197L46.9399 26.4138C46.909 26.3909 46.8764 26.3697 46.8406 26.3529L30.141 18.4927L35 16.2056ZM28.8177 19.1386L45.6071 27.0412L42.1684 28.6598L25.386 20.7604L28.8177 19.1386ZM45.9999 28.1249V34.1079L42.788 35.6198V29.6368L45.9999 28.1249ZM52.5756 44.5218L35.5859 52.5185V33.0267L39.6385 31.1192C39.9299 30.982 40.0521 30.6405 39.9114 30.3563C39.7707 30.0723 39.4205 29.953 39.129 30.0903L35 32.0338L33.3753 31.269C33.0838 31.1317 32.7336 31.251 32.5929 31.5351C32.4522 31.8192 32.5744 32.1608 32.8658 32.2979L34.4141 33.0267V52.5185L17.4244 44.5216V25.0299L30.3619 31.1194C30.444 31.1581 30.5308 31.1764 30.6162 31.1764C30.834 31.1764 31.0432 31.0574 31.1442 30.8533C31.2849 30.5692 31.1627 30.2277 30.8713 30.0905L18.1862 24.1197L24.0069 21.3799L41.608 29.6646C41.6106 29.6681 41.6134 29.6712 41.6161 29.6747V36.5301C41.6161 36.7267 41.7198 36.9094 41.8906 37.014C41.9854 37.072 42.0936 37.1013 42.2021 37.1013C42.289 37.1013 42.3761 37.0825 42.4568 37.0445L46.8406 34.9811C47.0431 34.8858 47.1718 34.6859 47.1718 34.4666V27.5735L52.5756 25.0299V44.5218V44.5218Z" fill="#C8C8C8"/>
<path d="M22.2599 42.306L19.5946 41.0515C19.3031 40.9142 18.9529 41.0335 18.8122 41.3176C18.6715 41.6017 18.7937 41.9433 19.0851 42.0805L21.7503 43.3349C21.8324 43.3736 21.9192 43.3919 22.0046 43.3919C22.2224 43.3919 22.4316 43.2729 22.5327 43.0689C22.6734 42.7847 22.5513 42.4433 22.2599 42.306Z" fill="#C8C8C8"/>
<path d="M24.7127 40.7493L19.5983 38.3419C19.3068 38.2048 18.9566 38.3239 18.8159 38.6081C18.6752 38.8922 18.7974 39.2338 19.0888 39.371L24.2033 41.7783C24.2854 41.8169 24.3722 41.8353 24.4576 41.8353C24.6754 41.8353 24.8846 41.7163 24.9856 41.5122C25.1263 41.2279 25.0041 40.8864 24.7127 40.7493Z" fill="#C8C8C8"/>
</g>
<defs>
<clipPath id="clip0_3_20">
<rect width="40" height="39" fill="white" transform="translate(15 15)"/>
</clipPath>
</defs>
</svg>
