<svg id="Capa_1" enable-background="new 0 0 512 512" height="512" viewBox="0 0 512 512" width="512" xmlns="http://www.w3.org/2000/svg"><path d="m81.486 89.9h32.748c4.142 0 7.5-3.358 7.5-7.5s-3.358-7.5-7.5-7.5h-32.748c-4.142 0-7.5 3.358-7.5 7.5s3.358 7.5 7.5 7.5z"/><path d="m81.486 129.845h32.748c4.142 0 7.5-3.358 7.5-7.5s-3.358-7.5-7.5-7.5h-32.748c-4.142 0-7.5 3.358-7.5 7.5s3.358 7.5 7.5 7.5z"/><path d="m239.626 89.9h32.747c4.142 0 7.5-3.358 7.5-7.5s-3.358-7.5-7.5-7.5h-32.747c-4.142 0-7.5 3.358-7.5 7.5s3.358 7.5 7.5 7.5z"/><path d="m239.626 129.845h32.747c4.142 0 7.5-3.358 7.5-7.5s-3.358-7.5-7.5-7.5h-32.747c-4.142 0-7.5 3.358-7.5 7.5s3.358 7.5 7.5 7.5z"/><path d="m397.766 89.9h32.747c4.142 0 7.5-3.358 7.5-7.5s-3.358-7.5-7.5-7.5h-32.747c-4.142 0-7.5 3.358-7.5 7.5s3.358 7.5 7.5 7.5z"/><path d="m397.766 129.845h32.747c4.142 0 7.5-3.358 7.5-7.5s-3.358-7.5-7.5-7.5h-32.747c-4.142 0-7.5 3.358-7.5 7.5s3.358 7.5 7.5 7.5z"/><path d="m222.594 255.464h66.813c10.328 0 18.73-8.402 18.73-18.729v-184.313c0-10.328-8.402-18.729-18.73-18.729h-66.813c-10.328 0-18.73 8.402-18.73 18.729v184.313c0 10.327 8.402 18.729 18.73 18.729zm-3.73-203.042c0-2.057 1.673-3.729 3.73-3.729h66.813c2.057 0 3.73 1.673 3.73 3.729v184.313c0 2.057-1.673 3.729-3.73 3.729h-66.813c-2.057 0-3.73-1.673-3.73-3.729z"/><path d="m467.981 0h-107.683c-10.142 0-19.22 4.637-25.228 11.902-6.008-7.265-15.087-11.902-25.228-11.902h-107.684c-10.142 0-19.22 4.637-25.228 11.902-6.008-7.265-15.086-11.902-25.228-11.902h-107.683c-18.047 0-32.728 14.682-32.728 32.728v446.544c0 18.046 14.682 32.728 32.728 32.728h107.684c10.142 0 19.22-4.637 25.228-11.902 6.008 7.265 15.086 11.902 25.228 11.902h107.684c10.142 0 19.22-4.637 25.228-11.902 6.008 7.265 15.086 11.902 25.228 11.902h107.684c18.046 0 32.728-14.682 32.728-32.728v-446.544c-.002-18.046-14.683-32.728-32.73-32.728zm-316.279 497h-107.683c-9.775 0-17.728-7.953-17.728-17.728v-446.544c0-9.775 7.952-17.728 17.728-17.728h107.684c9.775 0 17.728 7.953 17.728 17.728v446.544c-.001 9.775-7.953 17.728-17.729 17.728zm158.14 0h-107.684c-9.775 0-17.728-7.953-17.728-17.728v-446.544c0-9.775 7.953-17.728 17.728-17.728h107.684c9.775 0 17.728 7.953 17.728 17.728v446.544c0 9.775-7.953 17.728-17.728 17.728zm175.867-17.728c0 9.775-7.953 17.728-17.728 17.728h-107.683c-9.775 0-17.728-7.953-17.728-17.728v-446.544c0-9.775 7.953-17.728 17.728-17.728h107.684c9.775 0 17.728 7.953 17.728 17.728v446.544z"/><path d="m380.733 255.464h66.813c10.328 0 18.729-8.402 18.729-18.729v-184.313c0-10.328-8.402-18.729-18.729-18.729h-66.813c-10.328 0-18.729 8.402-18.729 18.729v126.896c0 4.142 3.358 7.5 7.5 7.5s7.5-3.358 7.5-7.5v-126.896c0-2.057 1.673-3.729 3.729-3.729h66.813c2.057 0 3.729 1.673 3.729 3.729v184.313c0 2.057-1.673 3.729-3.729 3.729h-66.813c-2.057 0-3.729-1.673-3.729-3.729v-22.356c0-4.142-3.358-7.5-7.5-7.5s-7.5 3.358-7.5 7.5v22.356c0 10.327 8.402 18.729 18.729 18.729z"/><path d="m64.454 255.464h66.813c10.328 0 18.729-8.402 18.729-18.729v-184.313c0-10.328-8.402-18.729-18.729-18.729h-66.813c-10.328 0-18.729 8.402-18.729 18.729v19.051c0 4.142 3.358 7.5 7.5 7.5s7.5-3.358 7.5-7.5v-19.051c0-2.057 1.673-3.729 3.729-3.729h66.813c2.057 0 3.729 1.673 3.729 3.729v184.313c0 2.057-1.673 3.729-3.729 3.729h-66.813c-2.057 0-3.729-1.673-3.729-3.729v-129.853c0-4.142-3.358-7.5-7.5-7.5s-7.5 3.358-7.5 7.5v129.853c-.001 10.327 8.401 18.729 18.729 18.729z"/><path d="m97.86 354.027c-32.143 0-58.293 26.15-58.293 58.293s26.15 58.293 58.293 58.293 58.293-26.15 58.293-58.293-26.15-58.293-58.293-58.293zm0 101.586c-23.872 0-43.293-19.421-43.293-43.293s19.421-43.293 43.293-43.293 43.293 19.421 43.293 43.293-19.421 43.293-43.293 43.293z"/><path d="m97.86 381.733c-16.866 0-30.587 13.721-30.587 30.587s13.721 30.587 30.587 30.587 30.587-13.722 30.587-30.587-13.721-30.587-30.587-30.587zm0 46.175c-8.595 0-15.587-6.993-15.587-15.587s6.992-15.587 15.587-15.587 15.587 6.992 15.587 15.587-6.992 15.587-15.587 15.587z"/><path d="m256 354.027c-32.143 0-58.293 26.15-58.293 58.293s26.15 58.293 58.293 58.293 58.293-26.15 58.293-58.293-26.15-58.293-58.293-58.293zm0 101.586c-23.872 0-43.293-19.421-43.293-43.293s19.421-43.293 43.293-43.293 43.293 19.421 43.293 43.293-19.421 43.293-43.293 43.293z"/><path d="m256 381.733c-16.866 0-30.587 13.721-30.587 30.587s13.721 30.587 30.587 30.587 30.587-13.722 30.587-30.587-13.721-30.587-30.587-30.587zm0 46.175c-8.595 0-15.587-6.993-15.587-15.587s6.992-15.587 15.587-15.587 15.587 6.992 15.587 15.587-6.992 15.587-15.587 15.587z"/><path d="m414.14 354.027c-32.143 0-58.293 26.15-58.293 58.293s26.15 58.293 58.293 58.293 58.293-26.15 58.293-58.293-26.15-58.293-58.293-58.293zm0 101.586c-23.872 0-43.293-19.421-43.293-43.293s19.421-43.293 43.293-43.293 43.293 19.421 43.293 43.293-19.422 43.293-43.293 43.293z"/><path d="m414.14 381.733c-16.866 0-30.587 13.721-30.587 30.587s13.721 30.587 30.587 30.587 30.587-13.722 30.587-30.587-13.722-30.587-30.587-30.587zm0 46.175c-8.595 0-15.587-6.993-15.587-15.587s6.992-15.587 15.587-15.587 15.587 6.992 15.587 15.587-6.993 15.587-15.587 15.587z"/></svg>