<svg width="71" height="71" viewBox="0 0 71 71" fill="none" xmlns="http://www.w3.org/2000/svg">
<circle cx="35" cy="35" r="35" fill="#F7F8FC"/>
<path d="M51.5325 34.7164H49.1948C49.1334 34.7164 49.0726 34.7287 49.0159 34.7527C48.9591 34.7767 48.9076 34.8119 48.8642 34.8563C48.8208 34.9006 48.7863 34.9533 48.7628 35.0112C48.7393 35.0692 48.7273 35.1313 48.7273 35.194V37.1045H47.3247V23.2537C47.3243 23.1271 47.2751 23.0058 47.1877 22.9161L47.1874 22.9157L42.5128 18.1404L42.5124 18.1399C42.4245 18.0506 42.3057 18.0003 42.1818 18H21.1429C21.0815 18 21.0207 18.0123 20.9639 18.0363C20.9072 18.0603 20.8556 18.0955 20.8122 18.1399C20.7688 18.1842 20.7344 18.2369 20.7109 18.2948C20.6874 18.3528 20.6753 18.4149 20.6753 18.4776V37.1045H19.2727V35.194C19.2727 35.1313 19.2607 35.0692 19.2372 35.0112C19.2137 34.9533 19.1792 34.9006 19.1358 34.8563C19.0924 34.8119 19.0409 34.7767 18.9841 34.7527C18.9274 34.7287 18.8666 34.7164 18.8052 34.7164H16.4675C16.4061 34.7164 16.3453 34.7287 16.2886 34.7527C16.2319 34.7767 16.1803 34.8119 16.1369 34.8563C16.0935 34.9006 16.059 34.9533 16.0356 35.0112C16.0121 35.0692 16 35.1313 16 35.194V42.3582C16 42.4209 16.0121 42.483 16.0356 42.541C16.059 42.599 16.0935 42.6516 16.1369 42.696C16.1803 42.7403 16.2319 42.7755 16.2886 42.7995C16.3453 42.8235 16.4061 42.8358 16.4675 42.8358H18.8052C18.8666 42.8358 18.9274 42.8235 18.9841 42.7995C19.0409 42.7755 19.0924 42.7403 19.1358 42.696C19.1792 42.6516 19.2137 42.599 19.2372 42.541C19.2607 42.483 19.2727 42.4209 19.2727 42.3582V40.4478H23.013V49.5224C23.013 49.5851 23.0251 49.6472 23.0485 49.7052C23.072 49.7631 23.1065 49.8158 23.1499 49.8601C23.1933 49.9045 23.2449 49.9397 23.3016 49.9637C23.3583 49.9877 23.4191 50 23.4805 50H25.8182C25.8796 50 25.9404 49.9877 25.9971 49.9637C26.0538 49.9397 26.1054 49.9045 26.1488 49.8601C26.1922 49.8158 26.2267 49.7631 26.2502 49.7052C26.2736 49.6472 26.2857 49.5851 26.2857 49.5224V40.4478H27.6883V49.5224C27.6883 49.5851 27.7004 49.6472 27.7239 49.7052C27.7474 49.7631 27.7818 49.8158 27.8252 49.8601C27.8686 49.9045 27.9202 49.9397 27.9769 49.9637C28.0336 49.9877 28.0944 50 28.1558 50H30.4935C30.5549 50 30.6157 49.9877 30.6724 49.9637C30.7292 49.9397 30.7807 49.9045 30.8241 49.8601C30.8676 49.8158 30.902 49.7631 30.9255 49.7052C30.949 49.6472 30.9611 49.5851 30.961 49.5224V40.4478H32.3636V49.5224C32.3636 49.5851 32.3757 49.6472 32.3992 49.7052C32.4227 49.7631 32.4571 49.8158 32.5005 49.8601C32.544 49.9045 32.5955 49.9397 32.6522 49.9637C32.709 49.9877 32.7698 50 32.8312 50H35.1688C35.2302 50 35.291 49.9877 35.3478 49.9637C35.4045 49.9397 35.456 49.9045 35.4995 49.8601C35.5429 49.8158 35.5773 49.7631 35.6008 49.7052C35.6243 49.6472 35.6364 49.5851 35.6364 49.5224V40.4478H37.039V49.5224C37.0389 49.5851 37.051 49.6472 37.0745 49.7052C37.098 49.7631 37.1324 49.8158 37.1759 49.8601C37.2193 49.9045 37.2708 49.9397 37.3276 49.9637C37.3843 49.9877 37.4451 50 37.5065 50H39.8442C39.9056 50 39.9664 49.9877 40.0231 49.9637C40.0798 49.9397 40.1314 49.9045 40.1748 49.8601C40.2182 49.8158 40.2526 49.7631 40.2761 49.7052C40.2996 49.6472 40.3117 49.5851 40.3117 49.5224V40.4478H41.7143V49.5224C41.7143 49.5851 41.7264 49.6472 41.7498 49.7052C41.7733 49.7631 41.8078 49.8158 41.8512 49.8601C41.8946 49.9045 41.9462 49.9397 42.0029 49.9637C42.0596 49.9877 42.1204 50 42.1818 50H44.5195C44.5809 50 44.6417 49.9877 44.6984 49.9637C44.7551 49.9397 44.8067 49.9045 44.8501 49.8601C44.8935 49.8158 44.928 49.7631 44.9515 49.7052C44.9749 49.6472 44.987 49.5851 44.987 49.5224V40.4478H48.7273V42.3582C48.7273 42.4209 48.7393 42.483 48.7628 42.541C48.7863 42.599 48.8208 42.6516 48.8642 42.696C48.9076 42.7403 48.9591 42.7755 49.0159 42.7995C49.0726 42.8235 49.1334 42.8358 49.1948 42.8358H51.5325C51.5939 42.8358 51.6547 42.8235 51.7114 42.7995C51.7681 42.7755 51.8197 42.7403 51.8631 42.696C51.9065 42.6516 51.941 42.599 51.9644 42.541C51.9879 42.483 52 42.4209 52 42.3582V35.194C52 35.1313 51.9879 35.0692 51.9644 35.0112C51.941 34.9533 51.9065 34.9006 51.8631 34.8563C51.8197 34.8119 51.7681 34.7767 51.7114 34.7527C51.6547 34.7287 51.5939 34.7164 51.5325 34.7164V34.7164ZM42.6493 19.6306L45.7285 22.7761H42.6493V19.6306ZM21.6104 18.9552H41.7143V23.2537C41.7143 23.3165 41.7264 23.3786 41.7498 23.4365C41.7733 23.4945 41.8078 23.5471 41.8512 23.5915C41.8946 23.6358 41.9462 23.671 42.0029 23.695C42.0596 23.719 42.1204 23.7314 42.1818 23.7313H46.3896V37.1045H21.6104V18.9552ZM18.3377 41.8806H16.9351V35.6716H18.3377V41.8806ZM25.3506 49.0448H23.9481V40.4478H25.3506V49.0448ZM30.026 49.0448H28.6234V40.4478H30.026V49.0448ZM34.7013 49.0448H33.2987V40.4478H34.7013V49.0448ZM39.3766 49.0448H37.974V40.4478H39.3766V49.0448ZM44.0519 49.0448H42.6493V40.4478H44.0519V49.0448ZM44.5195 39.4925H19.2727V38.0597H48.7273V39.4925H44.5195ZM51.0649 41.8806H49.6623V35.6716H51.0649V41.8806Z" fill="#EAEAEA"/>
<path d="M29.5 27H39.5C39.6326 27 39.7598 26.9473 39.8536 26.8536C39.9473 26.7598 40 26.6326 40 26.5C40 26.3674 39.9473 26.2402 39.8536 26.1464C39.7598 26.0527 39.6326 26 39.5 26H29.5C29.3674 26 29.2402 26.0527 29.1464 26.1464C29.0527 26.2402 29 26.3674 29 26.5C29 26.6326 29.0527 26.7598 29.1464 26.8536C29.2402 26.9473 29.3674 27 29.5 27Z" fill="#EAEAEA"/>
<path d="M45.5106 28H23.4894C23.3596 28 23.2351 28.0527 23.1433 28.1464C23.0516 28.2402 23 28.3674 23 28.5C23 28.6326 23.0516 28.7598 23.1433 28.8536C23.2351 28.9473 23.3596 29 23.4894 29H45.5106C45.6404 29 45.7649 28.9473 45.8567 28.8536C45.9484 28.7598 46 28.6326 46 28.5C46 28.3674 45.9484 28.2402 45.8567 28.1464C45.7649 28.0527 45.6404 28 45.5106 28Z" fill="#EAEAEA"/>
<path d="M45.5106 30H23.4894C23.3596 30 23.2351 30.0527 23.1433 30.1464C23.0516 30.2402 23 30.3674 23 30.5C23 30.6326 23.0516 30.7598 23.1433 30.8536C23.2351 30.9473 23.3596 31 23.4894 31H45.5106C45.6404 31 45.7649 30.9473 45.8567 30.8536C45.9484 30.7598 46 30.6326 46 30.5C46 30.3674 45.9484 30.2402 45.8567 30.1464C45.7649 30.0527 45.6404 30 45.5106 30Z" fill="#EAEAEA"/>
<path d="M45.5106 32H23.4894C23.3596 32 23.2351 32.0527 23.1433 32.1464C23.0516 32.2402 23 32.3674 23 32.5C23 32.6326 23.0516 32.7598 23.1433 32.8536C23.2351 32.9473 23.3596 33 23.4894 33H45.5106C45.6404 33 45.7649 32.9473 45.8567 32.8536C45.9484 32.7598 46 32.6326 46 32.5C46 32.3674 45.9484 32.2402 45.8567 32.1464C45.7649 32.0527 45.6404 32 45.5106 32Z" fill="#EAEAEA"/>
<path d="M45.5106 36H23.4894C23.3596 36 23.2351 36.0527 23.1433 36.1464C23.0516 36.2402 23 36.3674 23 36.5C23 36.6326 23.0516 36.7598 23.1433 36.8536C23.2351 36.9473 23.3596 37 23.4894 37H45.5106C45.6404 37 45.7649 36.9473 45.8567 36.8536C45.9484 36.7598 46 36.6326 46 36.5C46 36.3674 45.9484 36.2402 45.8567 36.1464C45.7649 36.0527 45.6404 36 45.5106 36Z" fill="#EAEAEA"/>
</svg>
