<svg id="Layer_1" height="512" viewBox="0 0 100 100" width="512" xmlns="http://www.w3.org/2000/svg" data-name="Layer 1"><path d="m87.5 51.5h-5a.99974.99974 0 0 0 -1 1v4h-3v-29a1.00594 1.00594 0 0 0 -.293-.707l-.00067-.00067-9.99847-9.99847-.00086-.00086a1.006 1.006 0 0 0 -.707-.293h-45a.99974.99974 0 0 0 -1 1v39h-3v-4a.99974.99974 0 0 0 -1-1h-5a.99974.99974 0 0 0 -1 1v15a.99974.99974 0 0 0 1 1h5a.99974.99974 0 0 0 1-1v-4h8v19a.99974.99974 0 0 0 1 1h5a.99974.99974 0 0 0 1-1v-19h3v19a.99974.99974 0 0 0 1 1h5a.99974.99974 0 0 0 1-1v-19h3v19a.99974.99974 0 0 0 1 1h5a.99974.99974 0 0 0 1-1v-19h3v19a.99974.99974 0 0 0 1 1h5a.99974.99974 0 0 0 1-1v-19h3v19a.99974.99974 0 0 0 1 1h5a.99974.99974 0 0 0 1-1v-19h8v4a.99974.99974 0 0 0 1 1h5a.99974.99974 0 0 0 1-1v-15a.99974.99974 0 0 0 -1-1zm-19-31.58594 6.58594 6.58594h-6.58594zm-45-1.41406h43v9a.99974.99974 0 0 0 1 1h9v28h-53zm-7 48h-3v-13h3zm15 15h-3v-18h3zm10 0h-3v-18h3zm10 0h-3v-18h3zm10 0h-3v-18h3zm10 0h-3v-18h3zm1-20h-54v-3h63v3zm14 5h-3v-13h3z"/><path d="m40 33.5h20a1 1 0 0 0 0-2h-20a1 1 0 0 0 0 2z"/><path d="m72.5 36.5h-45a1 1 0 0 0 0 2h45a1 1 0 0 0 0-2z"/><path d="m72.5 41.5h-45a1 1 0 0 0 0 2h45a1 1 0 0 0 0-2z"/><path d="m72.5 46.5h-45a1 1 0 0 0 0 2h45a1 1 0 0 0 0-2z"/><path d="m72.5 51.5h-45a1 1 0 0 0 0 2h45a1 1 0 0 0 0-2z"/></svg>