<svg width="140" height="140" viewBox="0 0 140 140" fill="none" xmlns="http://www.w3.org/2000/svg">
<rect width="140" height="140" fill="white"/>
<ellipse cx="69.5" cy="70" rx="67.5" ry="68" fill="#A6CE3A"/>
<g clip-path="url(#clip0_2_5)">
<path d="M97.4519 109H43.5524C42.0586 109 40.6994 108.145 40.0642 106.811C39.4291 105.477 39.637 103.901 40.5951 102.768L67.4144 70.9998L40.5951 39.2358C39.637 38.0995 39.4326 36.5228 40.0642 35.189C40.6994 33.8551 42.0586 33 43.5524 33H97.4519C99.5773 33 101.302 34.6985 101.302 36.7998V48.1998C101.302 50.3011 99.5773 52.0002 97.4519 52.0002C95.3271 52.0002 93.6021 50.3011 93.6021 48.1998V40.6002H51.7721L75.3839 68.5645C76.5739 69.9742 76.5739 72.0219 75.3839 73.4323L51.7721 101.4H93.6021V93.7998C93.6021 91.6985 95.3271 90 97.4519 90C99.5773 90 101.302 91.6985 101.302 93.7998V105.2C101.302 107.301 99.5773 109 97.4519 109Z" fill="white"/>
</g>
<defs>
<clipPath id="clip0_2_5">
<rect width="77" height="76" fill="white" transform="translate(32 33)"/>
</clipPath>
</defs>
</svg>
