<svg width="4431" height="538" viewBox="0 0 4431 538" fill="none" xmlns="http://www.w3.org/2000/svg">
<g clip-path="url(#clip0_1_2)">
<rect width="4431" height="538" fill="white"/>
<path d="M236 358.98V288.98H166C154.953 288.98 146 280.027 146 268.98C146 257.938 154.953 248.98 166 248.98H236V178.98C236 167.938 244.953 158.98 256 158.98C267.047 158.98 276 167.938 276 178.98V248.98H346C357.047 248.98 366 257.938 366 268.98C366 280.027 357.047 288.98 346 288.98H276V358.98C276 370.027 267.047 378.98 256 378.98C244.953 378.98 236 370.027 236 358.98ZM437.02 87.9805C388.668 39.6289 324.379 13 256 13C187.621 13 123.332 39.6289 74.9805 87.9805C26.6289 136.332 0 200.621 0 269C0 337.379 26.6289 401.668 74.9805 450.02C123.332 498.371 187.621 525 256 525C302.812 525 348.617 512.242 388.461 488.105C397.91 482.383 400.93 470.086 395.207 460.641C389.484 451.191 377.184 448.172 367.738 453.895C334.145 474.242 295.504 485 256 485C136.898 485 40 388.102 40 269C40 149.898 136.898 53 256 53C375.102 53 472 149.898 472 269C472 311.59 459.336 353.043 435.375 388.887C429.234 398.066 431.703 410.488 440.887 416.629C450.066 422.766 462.488 420.297 468.629 411.117C497 368.676 512 319.531 512 269C512 200.621 485.371 136.332 437.02 87.9805V87.9805Z" fill="#A6CE3A"/>
<path d="M743.848 384.728C727.528 384.728 713.512 382.04 701.8 376.664C690.088 371.288 680.488 363.896 673 354.488C665.704 345.08 660.328 334.328 656.872 322.232C653.416 309.944 651.688 297.08 651.688 283.64V178.52H707.848V283.64C707.848 290.36 708.52 296.792 709.864 302.936C711.208 309.08 713.32 314.552 716.2 319.352C719.08 324.152 722.728 327.992 727.144 330.872C731.752 333.56 737.32 334.904 743.848 334.904C750.568 334.904 756.232 333.56 760.84 330.872C765.448 327.992 769.096 324.152 771.784 319.352C774.664 314.36 776.776 308.792 778.12 302.648C779.464 296.504 780.136 290.168 780.136 283.64V178.52H836.296V283.64C836.296 297.848 834.376 311.096 830.536 323.384C826.888 335.672 821.32 346.424 813.832 355.64C806.344 364.856 796.744 372.056 785.032 377.24C773.512 382.232 759.784 384.728 743.848 384.728ZM761.128 169.88L726.568 160.664L740.968 119.768H789.64L761.128 169.88ZM859.712 443.192C851.84 443.192 844.256 441.848 836.96 439.16C829.472 436.472 822.752 432.632 816.8 427.64L839.264 390.488C840.8 392.216 842.816 393.56 845.312 394.52C847.808 395.672 850.304 396.248 852.8 396.248C855.296 396.248 857.312 395.768 858.848 394.808C860.576 393.848 861.92 392.408 862.88 390.488C863.84 388.568 864.32 386.36 864.32 383.864V231.512H919.04V379.544C919.04 392.024 916.448 403.064 911.264 412.664C906.272 422.264 899.36 429.752 890.528 435.128C881.696 440.504 871.424 443.192 859.712 443.192ZM864.32 218.84V172.76H919.04V218.84H864.32ZM1060.92 172.76L1053.43 210.488H1068.41V256.568H1011.67V209.048L1023.77 172.76H1060.92ZM1132.63 172.76L1125.15 210.488H1140.12V256.568H1083.39V209.048L1095.48 172.76H1132.63ZM1316.95 334.04V383H1171.22V178.52H1314.36V227.48H1227.38V256.28H1301.69V301.784H1227.38V334.04H1316.95ZM1395.25 383C1385.46 383 1376.43 381.08 1368.18 377.24C1360.11 373.4 1353.2 368.024 1347.44 361.112C1341.68 354.2 1337.17 346.136 1333.91 336.92C1330.83 327.704 1329.3 317.72 1329.3 306.968C1329.3 295.64 1331.03 285.272 1334.48 275.864C1337.94 266.264 1342.74 257.912 1348.88 250.808C1355.22 243.704 1362.71 238.232 1371.35 234.392C1379.99 230.552 1389.49 228.632 1399.86 228.632C1410.61 228.632 1420.11 230.84 1428.37 235.256C1436.82 239.48 1443.44 245.72 1448.24 253.976V231.512H1495.76V369.176C1495.76 384.92 1491.92 398.648 1484.24 410.36C1476.56 422.072 1465.81 431.096 1451.99 437.432C1438.16 443.96 1422.03 447.224 1403.6 447.224C1387.67 447.224 1373.65 444.728 1361.55 439.736C1349.65 434.744 1339.09 427.544 1329.87 418.136L1358.67 388.184C1364.24 393.368 1370.87 397.688 1378.55 401.144C1386.42 404.792 1394.77 406.616 1403.6 406.616C1410.32 406.616 1416.47 405.368 1422.03 402.872C1427.79 400.376 1432.4 396.344 1435.86 390.776C1439.31 385.4 1441.04 378.2 1441.04 369.176V359.384C1436.82 367.256 1430.48 373.208 1422.03 377.24C1413.78 381.08 1404.85 383 1395.25 383ZM1414.83 339.8C1417.52 339.8 1420.02 339.512 1422.32 338.936C1424.82 338.168 1427.12 337.208 1429.23 336.056C1431.35 334.712 1433.36 333.08 1435.28 331.16C1437.39 329.048 1439.31 326.744 1441.04 324.248V297.176C1439.31 292.568 1436.91 288.632 1433.84 285.368C1430.77 281.912 1427.41 279.32 1423.76 277.592C1420.11 275.672 1416.37 274.712 1412.53 274.712C1408.69 274.712 1405.04 275.576 1401.59 277.304C1398.32 279.032 1395.44 281.528 1392.95 284.792C1390.45 287.864 1388.53 291.416 1387.19 295.448C1385.84 299.48 1385.17 303.8 1385.17 308.408C1385.17 313.016 1385.84 317.24 1387.19 321.08C1388.72 324.92 1390.83 328.28 1393.52 331.16C1396.21 333.848 1399.38 335.96 1403.03 337.496C1406.67 339.032 1410.61 339.8 1414.83 339.8ZM1522.39 398.264C1526.81 399.8 1530.84 400.952 1534.49 401.72C1538.33 402.68 1541.78 403.16 1544.85 403.16C1548.89 403.16 1552.25 402.392 1554.93 400.856C1557.62 399.512 1559.73 397.304 1561.27 394.232C1562.81 391.16 1563.77 387.416 1564.15 383L1509.14 231.512H1565.3L1594.1 326.84L1617.43 231.512H1668.41L1617.14 401.144C1614.26 410.936 1609.56 419.48 1603.03 426.776C1596.5 434.264 1588.73 440.024 1579.7 444.056C1570.68 448.28 1560.98 450.392 1550.61 450.392C1545.81 450.392 1541.01 449.912 1536.21 448.952C1531.61 448.184 1527 446.84 1522.39 444.92V398.264ZM1753.38 385.88C1740.14 385.88 1728.33 383.864 1717.96 379.832C1707.59 375.608 1698.86 369.944 1691.75 362.84C1684.84 355.736 1679.56 347.576 1675.91 338.36C1672.26 329.144 1670.44 319.448 1670.44 309.272C1670.44 294.68 1673.61 281.336 1679.94 269.24C1686.28 256.952 1695.59 247.16 1707.88 239.864C1720.17 232.376 1735.34 228.632 1753.38 228.632C1771.43 228.632 1786.6 232.28 1798.89 239.576C1811.18 246.872 1820.49 256.472 1826.82 268.376C1833.16 280.28 1836.33 293.24 1836.33 307.256C1836.33 310.136 1836.14 313.112 1835.75 316.184C1835.56 319.064 1835.27 321.656 1834.89 323.96H1728.62C1729 329.336 1730.44 333.752 1732.94 337.208C1735.62 340.472 1738.89 342.872 1742.73 344.408C1746.76 345.944 1750.89 346.712 1755.11 346.712C1761.06 346.712 1766.63 345.368 1771.82 342.68C1777.19 339.992 1780.74 336.248 1782.47 331.448L1828.84 344.696C1824.81 352.76 1819.14 359.864 1811.85 366.008C1804.74 372.152 1796.3 377.048 1786.5 380.696C1776.71 384.152 1765.67 385.88 1753.38 385.88ZM1727.46 291.128H1777.58C1777 286.136 1775.56 281.912 1773.26 278.456C1771.14 275 1768.26 272.312 1764.62 270.392C1761.16 268.472 1757.13 267.512 1752.52 267.512C1747.91 267.512 1743.78 268.472 1740.14 270.392C1736.68 272.312 1733.8 275 1731.5 278.456C1729.38 281.912 1728.04 286.136 1727.46 291.128ZM1770.66 222.872L1736.1 213.656L1750.5 172.76H1799.18L1770.66 222.872ZM1950.77 385.88C1939.44 385.88 1929.65 383.672 1921.4 379.256C1913.14 374.648 1906.61 368.024 1901.81 359.384V383H1854.29V172.76H1909.01V253.976C1913.43 245.72 1919.67 239.48 1927.73 235.256C1935.8 230.84 1945.3 228.632 1956.24 228.632C1965.46 228.632 1974 230.648 1981.88 234.68C1989.75 238.52 1996.56 243.992 2002.32 251.096C2008.28 258.2 2012.88 266.648 2016.15 276.44C2019.41 286.04 2021.04 296.504 2021.04 307.832C2021.04 318.968 2019.22 329.336 2015.57 338.936C2012.12 348.344 2007.22 356.6 2000.88 363.704C1994.74 370.808 1987.35 376.28 1978.71 380.12C1970.26 383.96 1960.95 385.88 1950.77 385.88ZM1934.93 339.8C1939.35 339.8 1943.38 339.032 1947.03 337.496C1950.68 335.96 1953.84 333.848 1956.53 331.16C1959.22 328.28 1961.24 324.92 1962.58 321.08C1964.12 317.24 1964.88 312.92 1964.88 308.12C1964.88 301.976 1963.64 296.408 1961.14 291.416C1958.84 286.232 1955.57 282.2 1951.35 279.32C1947.32 276.248 1942.61 274.712 1937.24 274.712C1933.4 274.712 1929.65 275.672 1926 277.592C1922.36 279.512 1919 282.2 1915.92 285.656C1913.04 288.92 1910.74 292.76 1909.01 297.176V324.248C1910.74 326.744 1912.56 329.048 1914.48 331.16C1916.6 333.08 1918.71 334.712 1920.82 336.056C1922.93 337.208 1925.14 338.168 1927.44 338.936C1929.94 339.512 1932.44 339.8 1934.93 339.8ZM2040.34 252.536L2047.83 214.808H2032.85V168.728H2089.59V216.248L2077.49 252.536H2040.34ZM2112.05 252.536L2119.54 214.808H2104.56V168.728H2161.3V216.248L2149.2 252.536H2112.05ZM2308.81 385.88C2295.56 385.88 2282.51 383.768 2269.64 379.544C2256.97 375.128 2246.22 368.792 2237.39 360.536L2256.11 326.84C2265.51 332.984 2274.54 337.784 2283.18 341.24C2292.01 344.696 2299.98 346.424 2307.08 346.424C2311.11 346.424 2314.09 345.944 2316.01 344.984C2317.93 343.832 2318.89 342.008 2318.89 339.512C2318.89 337.784 2318.22 336.344 2316.87 335.192C2315.53 334.04 2313.32 332.888 2310.25 331.736C2307.37 330.584 2303.63 329.336 2299.02 327.992C2287.11 323.768 2277.13 319.832 2269.07 316.184C2261.19 312.536 2255.24 308.12 2251.21 302.936C2247.37 297.56 2245.45 290.456 2245.45 281.624C2245.45 271.256 2248.04 262.136 2253.23 254.264C2258.41 246.2 2265.8 239.864 2275.4 235.256C2285.19 230.648 2296.91 228.344 2310.54 228.344C2320.71 228.344 2330.89 229.976 2341.07 233.24C2351.43 236.312 2361.42 241.976 2371.02 250.232L2350.28 283.64C2340.68 277.688 2332.52 273.464 2325.8 270.968C2319.27 268.472 2313.42 267.224 2308.23 267.224C2305.74 267.224 2303.53 267.512 2301.61 268.088C2299.88 268.664 2298.54 269.528 2297.58 270.68C2296.62 271.832 2296.14 273.368 2296.14 275.288C2296.14 277.208 2296.81 278.84 2298.15 280.184C2299.5 281.336 2301.61 282.488 2304.49 283.64C2307.37 284.6 2311.02 285.752 2315.43 287.096C2328.49 290.936 2339.15 294.872 2347.4 298.904C2355.66 302.744 2361.71 307.448 2365.55 313.016C2369.58 318.584 2371.59 325.88 2371.59 334.904C2371.59 350.84 2365.93 363.32 2354.6 372.344C2343.47 381.368 2328.2 385.88 2308.81 385.88ZM2466.92 385.88C2453.48 385.88 2441.57 383.768 2431.2 379.544C2420.84 375.32 2412.1 369.56 2405 362.264C2398.08 354.776 2392.8 346.328 2389.16 336.92C2385.7 327.512 2383.97 317.624 2383.97 307.256C2383.97 296.888 2385.7 287 2389.16 277.592C2392.8 267.992 2398.08 259.544 2405 252.248C2412.1 244.952 2420.84 239.192 2431.2 234.968C2441.57 230.744 2453.48 228.632 2466.92 228.632C2480.55 228.632 2492.45 230.744 2502.63 234.968C2513 239.192 2521.64 244.952 2528.55 252.248C2535.65 259.544 2540.93 267.992 2544.39 277.592C2548.04 287 2549.86 296.888 2549.86 307.256C2549.86 317.624 2548.04 327.512 2544.39 336.92C2540.93 346.328 2535.65 354.776 2528.55 362.264C2521.64 369.56 2513 375.32 2502.63 379.544C2492.45 383.768 2480.55 385.88 2466.92 385.88ZM2440.13 307.256C2440.13 313.976 2441.28 319.832 2443.59 324.824C2445.89 329.624 2449.06 333.368 2453.09 336.056C2457.12 338.552 2461.73 339.8 2466.92 339.8C2472.1 339.8 2476.71 338.552 2480.74 336.056C2484.77 333.368 2487.94 329.624 2490.24 324.824C2492.55 319.832 2493.7 313.976 2493.7 307.256C2493.7 300.536 2492.55 294.776 2490.24 289.976C2487.94 284.984 2484.77 281.24 2480.74 278.744C2476.71 276.056 2472.1 274.712 2466.92 274.712C2461.73 274.712 2457.12 276.056 2453.09 278.744C2449.06 281.24 2445.89 284.984 2443.59 289.976C2441.28 294.776 2440.13 300.536 2440.13 307.256ZM2672.05 278.168C2661.49 278.168 2651.89 279.32 2643.25 281.624C2634.61 283.928 2628.17 287.768 2623.95 293.144V383H2569.23V231.512H2619.34V260.312C2624.72 250.136 2631.44 242.36 2639.5 236.984C2647.57 231.416 2656.11 228.632 2665.13 228.632C2667.25 228.632 2668.69 228.632 2669.45 228.632C2670.41 228.632 2671.28 228.728 2672.05 228.92V278.168ZM2900.46 383H2845.74V297.752C2845.74 290.264 2844.01 284.888 2840.55 281.624C2837.29 278.168 2833.16 276.44 2828.17 276.44C2825.87 276.44 2822.99 277.304 2819.53 279.032C2816.27 280.76 2813.1 283.256 2810.03 286.52C2806.95 289.784 2804.55 293.624 2802.83 298.04V383H2748.11V172.76H2802.83V253.976C2808.2 245.72 2815.21 239.48 2823.85 235.256C2832.68 230.84 2842.38 228.632 2852.94 228.632C2863.69 228.632 2872.23 230.456 2878.57 234.104C2884.91 237.56 2889.61 242.072 2892.68 247.64C2895.75 253.208 2897.77 259.16 2898.73 265.496C2899.88 271.832 2900.46 277.784 2900.46 283.352V383ZM3001.57 385.88C2988.13 385.88 2976.23 383.768 2965.86 379.544C2955.49 375.32 2946.76 369.56 2939.65 362.264C2932.74 354.776 2927.46 346.328 2923.81 336.92C2920.36 327.512 2918.63 317.624 2918.63 307.256C2918.63 296.888 2920.36 287 2923.81 277.592C2927.46 267.992 2932.74 259.544 2939.65 252.248C2946.76 244.952 2955.49 239.192 2965.86 234.968C2976.23 230.744 2988.13 228.632 3001.57 228.632C3015.2 228.632 3027.11 230.744 3037.28 234.968C3047.65 239.192 3056.29 244.952 3063.2 252.248C3070.31 259.544 3075.59 267.992 3079.04 277.592C3082.69 287 3084.52 296.888 3084.52 307.256C3084.52 317.624 3082.69 327.512 3079.04 336.92C3075.59 346.328 3070.31 354.776 3063.2 362.264C3056.29 369.56 3047.65 375.32 3037.28 379.544C3027.11 383.768 3015.2 385.88 3001.57 385.88ZM2974.79 307.256C2974.79 313.976 2975.94 319.832 2978.24 324.824C2980.55 329.624 2983.72 333.368 2987.75 336.056C2991.78 338.552 2996.39 339.8 3001.57 339.8C3006.76 339.8 3011.36 338.552 3015.4 336.056C3019.43 333.368 3022.6 329.624 3024.9 324.824C3027.2 319.832 3028.36 313.976 3028.36 307.256C3028.36 300.536 3027.2 294.776 3024.9 289.976C3022.6 284.984 3019.43 281.24 3015.4 278.744C3011.36 276.056 3006.76 274.712 3001.57 274.712C2996.39 274.712 2991.78 276.056 2987.75 278.744C2983.72 281.24 2980.55 284.984 2978.24 289.976C2975.94 294.776 2974.79 300.536 2974.79 307.256ZM3094.15 350.744L3163.27 268.952H3098.47V231.512H3220.29V263.768L3151.46 345.56H3222.88V383H3094.15V350.744ZM3236.46 350.744L3305.58 268.952H3240.78V231.512H3362.61V263.768L3293.77 345.56H3365.2V383H3236.46V350.744ZM3377.91 337.208C3377.91 327.032 3380.69 318.104 3386.26 310.424C3391.83 302.552 3399.51 296.408 3409.3 291.992C3419.29 287.576 3430.61 285.368 3443.29 285.368C3449.24 285.368 3454.81 285.848 3459.99 286.808C3465.37 287.768 3469.97 289.208 3473.81 291.128V286.52C3473.81 279.416 3471.7 274.136 3467.48 270.68C3463.45 267.224 3456.82 265.496 3447.61 265.496C3439.16 265.496 3431.19 266.936 3423.7 269.816C3416.41 272.504 3408.73 276.536 3400.66 281.912L3384.82 247.928C3395 241.4 3405.65 236.6 3416.79 233.528C3428.12 230.264 3440.21 228.632 3453.08 228.632C3477.08 228.632 3495.61 234.104 3508.66 245.048C3521.91 255.8 3528.53 271.832 3528.53 293.144V322.52C3528.53 327.704 3529.3 331.352 3530.84 333.464C3532.37 335.384 3535.06 336.536 3538.9 336.92V383C3534.49 383.96 3530.26 384.632 3526.23 385.016C3522.39 385.592 3518.93 385.88 3515.86 385.88C3506.07 385.88 3498.58 384.152 3493.4 380.696C3488.41 377.048 3485.14 371.768 3483.61 364.856L3482.45 359.384C3475.73 368.024 3467.96 374.648 3459.13 379.256C3450.29 383.672 3440.89 385.88 3430.9 385.88C3420.92 385.88 3411.89 383.768 3403.83 379.544C3395.77 375.32 3389.43 369.56 3384.82 362.264C3380.21 354.776 3377.91 346.424 3377.91 337.208ZM3466.61 340.952C3468.73 339.416 3470.45 337.784 3471.8 336.056C3473.14 334.136 3473.81 332.216 3473.81 330.296V319.064C3470.74 317.912 3467.19 316.952 3463.16 316.184C3459.32 315.416 3455.86 315.032 3452.79 315.032C3446.26 315.032 3440.69 316.664 3436.09 319.928C3431.67 323.192 3429.46 327.32 3429.46 332.312C3429.46 335 3430.23 337.496 3431.77 339.8C3433.3 341.912 3435.41 343.64 3438.1 344.984C3440.79 346.136 3443.86 346.712 3447.32 346.712C3450.58 346.712 3453.94 346.232 3457.4 345.272C3461.05 344.12 3464.12 342.68 3466.61 340.952ZM3470.36 222.872L3435.8 213.656L3450.2 172.76H3498.87L3470.36 222.872ZM3550.32 337.208C3550.32 327.032 3553.1 318.104 3558.67 310.424C3564.24 302.552 3571.92 296.408 3581.71 291.992C3591.69 287.576 3603.02 285.368 3615.69 285.368C3621.64 285.368 3627.21 285.848 3632.4 286.808C3637.77 287.768 3642.38 289.208 3646.22 291.128V286.52C3646.22 279.416 3644.11 274.136 3639.88 270.68C3635.85 267.224 3629.23 265.496 3620.01 265.496C3611.56 265.496 3603.6 266.936 3596.11 269.816C3588.81 272.504 3581.13 276.536 3573.07 281.912L3557.23 247.928C3567.4 241.4 3578.06 236.6 3589.2 233.528C3600.52 230.264 3612.62 228.632 3625.48 228.632C3649.48 228.632 3668.01 234.104 3681.07 245.048C3694.32 255.8 3700.94 271.832 3700.94 293.144V322.52C3700.94 327.704 3701.71 331.352 3703.24 333.464C3704.78 335.384 3707.47 336.536 3711.31 336.92V383C3706.89 383.96 3702.67 384.632 3698.64 385.016C3694.8 385.592 3691.34 385.88 3688.27 385.88C3678.48 385.88 3670.99 384.152 3665.8 380.696C3660.81 377.048 3657.55 371.768 3656.01 364.856L3654.86 359.384C3648.14 368.024 3640.36 374.648 3631.53 379.256C3622.7 383.672 3613.29 385.88 3603.31 385.88C3593.32 385.88 3584.3 383.768 3576.24 379.544C3568.17 375.32 3561.84 369.56 3557.23 362.264C3552.62 354.776 3550.32 346.424 3550.32 337.208ZM3639.02 340.952C3641.13 339.416 3642.86 337.784 3644.2 336.056C3645.55 334.136 3646.22 332.216 3646.22 330.296V319.064C3643.15 317.912 3639.6 316.952 3635.56 316.184C3631.72 315.416 3628.27 315.032 3625.2 315.032C3618.67 315.032 3613.1 316.664 3608.49 319.928C3604.08 323.192 3601.87 327.32 3601.87 332.312C3601.87 335 3602.64 337.496 3604.17 339.8C3605.71 341.912 3607.82 343.64 3610.51 344.984C3613.2 346.136 3616.27 346.712 3619.72 346.712C3622.99 346.712 3626.35 346.232 3629.8 345.272C3633.45 344.12 3636.52 342.68 3639.02 340.952ZM3723.01 306.968C3723.01 291.992 3725.79 278.648 3731.36 266.936C3737.12 255.032 3744.99 245.72 3754.98 239C3764.96 232.088 3776.39 228.632 3789.25 228.632C3799.04 228.632 3808.07 230.936 3816.32 235.544C3824.58 239.96 3830.82 246.104 3835.04 253.976V172.76H3889.76V322.52C3889.76 327.704 3890.53 331.352 3892.07 333.464C3893.6 335.384 3896.29 336.536 3900.13 336.92V383C3890.72 384.92 3883.04 385.88 3877.09 385.88C3867.87 385.88 3860.58 384.152 3855.2 380.696C3849.83 377.24 3846.37 371.96 3844.83 364.856L3843.68 359.384C3838.5 368.6 3831.49 375.32 3822.66 379.544C3813.83 383.768 3804.42 385.88 3794.43 385.88C3784.07 385.88 3774.47 383.96 3765.63 380.12C3756.99 376.28 3749.41 370.904 3742.88 363.992C3736.55 356.888 3731.65 348.536 3728.19 338.936C3724.74 329.144 3723.01 318.488 3723.01 306.968ZM3835.33 324.248V297.176C3833.6 292.76 3831.2 288.92 3828.13 285.656C3825.25 282.2 3821.99 279.512 3818.34 277.592C3814.69 275.672 3810.95 274.712 3807.11 274.712C3803.07 274.712 3799.33 275.576 3795.87 277.304C3792.61 279.032 3789.73 281.432 3787.23 284.504C3784.74 287.576 3782.82 291.128 3781.47 295.16C3780.13 299.192 3779.46 303.512 3779.46 308.12C3779.46 312.92 3780.13 317.24 3781.47 321.08C3783.01 324.92 3785.12 328.28 3787.81 331.16C3790.5 333.848 3793.67 335.96 3797.31 337.496C3800.96 339.032 3804.99 339.8 3809.41 339.8C3812.1 339.8 3814.59 339.512 3816.9 338.936C3819.2 338.168 3821.41 337.208 3823.52 336.056C3825.63 334.712 3827.65 333.08 3829.57 331.16C3831.68 329.048 3833.6 326.744 3835.33 324.248ZM3914.25 337.208C3914.25 327.032 3917.04 318.104 3922.61 310.424C3928.17 302.552 3935.85 296.408 3945.65 291.992C3955.63 287.576 3966.96 285.368 3979.63 285.368C3985.58 285.368 3991.15 285.848 3996.33 286.808C4001.71 287.768 4006.32 289.208 4010.16 291.128V286.52C4010.16 279.416 4008.05 274.136 4003.82 270.68C3999.79 267.224 3993.17 265.496 3983.95 265.496C3975.5 265.496 3967.53 266.936 3960.05 269.816C3952.75 272.504 3945.07 276.536 3937.01 281.912L3921.17 247.928C3931.34 241.4 3942 236.6 3953.13 233.528C3964.46 230.264 3976.56 228.632 3989.42 228.632C4013.42 228.632 4031.95 234.104 4045.01 245.048C4058.25 255.8 4064.88 271.832 4064.88 293.144V322.52C4064.88 327.704 4065.65 331.352 4067.18 333.464C4068.72 335.384 4071.41 336.536 4075.25 336.92V383C4070.83 383.96 4066.61 384.632 4062.57 385.016C4058.73 385.592 4055.28 385.88 4052.21 385.88C4042.41 385.88 4034.93 384.152 4029.74 380.696C4024.75 377.048 4021.49 371.768 4019.95 364.856L4018.8 359.384C4012.08 368.024 4004.3 374.648 3995.47 379.256C3986.64 383.672 3977.23 385.88 3967.25 385.88C3957.26 385.88 3948.24 383.768 3940.17 379.544C3932.11 375.32 3925.77 369.56 3921.17 362.264C3916.56 354.776 3914.25 346.424 3914.25 337.208ZM4002.96 340.952C4005.07 339.416 4006.8 337.784 4008.14 336.056C4009.49 334.136 4010.16 332.216 4010.16 330.296V319.064C4007.09 317.912 4003.53 316.952 3999.5 316.184C3995.66 315.416 3992.21 315.032 3989.13 315.032C3982.61 315.032 3977.04 316.664 3972.43 319.928C3968.01 323.192 3965.81 327.32 3965.81 332.312C3965.81 335 3966.57 337.496 3968.11 339.8C3969.65 341.912 3971.76 343.64 3974.45 344.984C3977.13 346.136 3980.21 346.712 3983.66 346.712C3986.93 346.712 3990.29 346.232 3993.74 345.272C3997.39 344.12 4000.46 342.68 4002.96 340.952ZM4006.7 222.872L3972.14 213.656L3986.54 172.76H4035.21L4006.7 222.872ZM4155.78 385.88C4142.53 385.88 4129.48 383.768 4116.61 379.544C4103.94 375.128 4093.19 368.792 4084.36 360.536L4103.08 326.84C4112.48 332.984 4121.51 337.784 4130.15 341.24C4138.98 344.696 4146.95 346.424 4154.05 346.424C4158.08 346.424 4161.06 345.944 4162.98 344.984C4164.9 343.832 4165.86 342.008 4165.86 339.512C4165.86 337.784 4165.19 336.344 4163.84 335.192C4162.5 334.04 4160.29 332.888 4157.22 331.736C4154.34 330.584 4150.6 329.336 4145.99 327.992C4134.08 323.768 4124.1 319.832 4116.04 316.184C4108.16 312.536 4102.21 308.12 4098.18 302.936C4094.34 297.56 4092.42 290.456 4092.42 281.624C4092.42 271.256 4095.01 262.136 4100.2 254.264C4105.38 246.2 4112.77 239.864 4122.37 235.256C4132.16 230.648 4143.88 228.344 4157.51 228.344C4167.68 228.344 4177.86 229.976 4188.04 233.24C4198.4 236.312 4208.39 241.976 4217.99 250.232L4197.25 283.64C4187.65 277.688 4179.49 273.464 4172.77 270.968C4166.24 268.472 4160.39 267.224 4155.2 267.224C4152.71 267.224 4150.5 267.512 4148.58 268.088C4146.85 268.664 4145.51 269.528 4144.55 270.68C4143.59 271.832 4143.11 273.368 4143.11 275.288C4143.11 277.208 4143.78 278.84 4145.12 280.184C4146.47 281.336 4148.58 282.488 4151.46 283.64C4154.34 284.6 4157.99 285.752 4162.4 287.096C4175.46 290.936 4186.12 294.872 4194.37 298.904C4202.63 302.744 4208.68 307.448 4212.52 313.016C4216.55 318.584 4218.56 325.88 4218.56 334.904C4218.56 350.84 4212.9 363.32 4201.57 372.344C4190.44 381.368 4175.17 385.88 4155.78 385.88ZM4230.94 337.208C4230.94 327.032 4233.72 318.104 4239.29 310.424C4244.86 302.552 4252.54 296.408 4262.33 291.992C4272.32 287.576 4283.64 285.368 4296.32 285.368C4302.27 285.368 4307.84 285.848 4313.02 286.808C4318.4 287.768 4323 289.208 4326.84 291.128V286.52C4326.84 279.416 4324.73 274.136 4320.51 270.68C4316.48 267.224 4309.85 265.496 4300.64 265.496C4292.19 265.496 4284.22 266.936 4276.73 269.816C4269.44 272.504 4261.76 276.536 4253.69 281.912L4237.85 247.928C4248.03 241.4 4258.68 236.6 4269.82 233.528C4281.15 230.264 4293.24 228.632 4306.11 228.632C4330.11 228.632 4348.64 234.104 4361.69 245.048C4374.94 255.8 4381.56 271.832 4381.56 293.144V322.52C4381.56 327.704 4382.33 331.352 4383.87 333.464C4385.4 335.384 4388.09 336.536 4391.93 336.92V383C4387.52 383.96 4383.29 384.632 4379.26 385.016C4375.42 385.592 4371.96 385.88 4368.89 385.88C4359.1 385.88 4351.61 384.152 4346.43 380.696C4341.44 377.048 4338.17 371.768 4336.64 364.856L4335.48 359.384C4328.76 368.024 4320.99 374.648 4312.16 379.256C4303.32 383.672 4293.92 385.88 4283.93 385.88C4273.95 385.88 4264.92 383.768 4256.86 379.544C4248.8 375.32 4242.46 369.56 4237.85 362.264C4233.24 354.776 4230.94 346.424 4230.94 337.208ZM4319.64 340.952C4321.76 339.416 4323.48 337.784 4324.83 336.056C4326.17 334.136 4326.84 332.216 4326.84 330.296V319.064C4323.77 317.912 4320.22 316.952 4316.19 316.184C4312.35 315.416 4308.89 315.032 4305.82 315.032C4299.29 315.032 4293.72 316.664 4289.12 319.928C4284.7 323.192 4282.49 327.32 4282.49 332.312C4282.49 335 4283.26 337.496 4284.8 339.8C4286.33 341.912 4288.44 343.64 4291.13 344.984C4293.82 346.136 4296.89 346.712 4300.35 346.712C4303.61 346.712 4306.97 346.232 4310.43 345.272C4314.08 344.12 4317.15 342.68 4319.64 340.952Z" fill="#A6CE3A"/>
</g>
<defs>
<clipPath id="clip0_1_2">
<rect width="4431" height="538" fill="white"/>
</clipPath>
</defs>
</svg>
