<svg width="3269" height="538" viewBox="0 0 3269 538" fill="none" xmlns="http://www.w3.org/2000/svg">
<g clip-path="url(#clip0_1_2)">
<rect width="3269" height="538" fill="white"/>
<path d="M236 358.98V288.98H166C154.953 288.98 146 280.027 146 268.98C146 257.938 154.953 248.98 166 248.98H236V178.98C236 167.938 244.953 158.98 256 158.98C267.047 158.98 276 167.938 276 178.98V248.98H346C357.047 248.98 366 257.938 366 268.98C366 280.027 357.047 288.98 346 288.98H276V358.98C276 370.027 267.047 378.98 256 378.98C244.953 378.98 236 370.027 236 358.98ZM437.02 87.9805C388.668 39.6289 324.379 13 256 13C187.621 13 123.332 39.6289 74.9805 87.9805C26.6289 136.332 0 200.621 0 269C0 337.379 26.6289 401.668 74.9805 450.02C123.332 498.371 187.621 525 256 525C302.812 525 348.617 512.242 388.461 488.105C397.91 482.383 400.93 470.086 395.207 460.641C389.484 451.191 377.184 448.172 367.738 453.895C334.145 474.242 295.504 485 256 485C136.898 485 40 388.102 40 269C40 149.898 136.898 53 256 53C375.102 53 472 149.898 472 269C472 311.59 459.336 353.043 435.375 388.887C429.234 398.066 431.703 410.488 440.887 416.629C450.066 422.766 462.488 420.297 468.629 411.117C497 368.676 512 319.531 512 269C512 200.621 485.371 136.332 437.02 87.9805V87.9805Z" fill="#434343"/>
<path d="M743.848 384.728C727.528 384.728 713.512 382.04 701.8 376.664C690.088 371.288 680.488 363.896 673 354.488C665.704 345.08 660.328 334.328 656.872 322.232C653.416 309.944 651.688 297.08 651.688 283.64V178.52H707.848V283.64C707.848 290.36 708.52 296.792 709.864 302.936C711.208 309.08 713.32 314.552 716.2 319.352C719.08 324.152 722.728 327.992 727.144 330.872C731.752 333.56 737.32 334.904 743.848 334.904C750.568 334.904 756.232 333.56 760.84 330.872C765.448 327.992 769.096 324.152 771.784 319.352C774.664 314.36 776.776 308.792 778.12 302.648C779.464 296.504 780.136 290.168 780.136 283.64V178.52H836.296V283.64C836.296 297.848 834.376 311.096 830.536 323.384C826.888 335.672 821.32 346.424 813.832 355.64C806.344 364.856 796.744 372.056 785.032 377.24C773.512 382.232 759.784 384.728 743.848 384.728ZM761.128 169.88L726.568 160.664L740.968 119.768H789.64L761.128 169.88ZM859.712 443.192C851.84 443.192 844.256 441.848 836.96 439.16C829.472 436.472 822.752 432.632 816.8 427.64L839.264 390.488C840.8 392.216 842.816 393.56 845.312 394.52C847.808 395.672 850.304 396.248 852.8 396.248C855.296 396.248 857.312 395.768 858.848 394.808C860.576 393.848 861.92 392.408 862.88 390.488C863.84 388.568 864.32 386.36 864.32 383.864V231.512H919.04V379.544C919.04 392.024 916.448 403.064 911.264 412.664C906.272 422.264 899.36 429.752 890.528 435.128C881.696 440.504 871.424 443.192 859.712 443.192ZM864.32 218.84V172.76H919.04V218.84H864.32ZM1072.15 385.88C1058.91 385.88 1045.85 383.768 1032.99 379.544C1020.31 375.128 1009.56 368.792 1000.73 360.536L1019.45 326.84C1028.86 332.984 1037.88 337.784 1046.52 341.24C1055.35 344.696 1063.32 346.424 1070.43 346.424C1074.46 346.424 1077.43 345.944 1079.35 344.984C1081.27 343.832 1082.23 342.008 1082.23 339.512C1082.23 337.784 1081.56 336.344 1080.22 335.192C1078.87 334.04 1076.67 332.888 1073.59 331.736C1070.71 330.584 1066.97 329.336 1062.36 327.992C1050.46 323.768 1040.47 319.832 1032.41 316.184C1024.54 312.536 1018.59 308.12 1014.55 302.936C1010.71 297.56 1008.79 290.456 1008.79 281.624C1008.79 271.256 1011.39 262.136 1016.57 254.264C1021.75 246.2 1029.15 239.864 1038.75 235.256C1048.54 230.648 1060.25 228.344 1073.88 228.344C1084.06 228.344 1094.23 229.976 1104.41 233.24C1114.78 236.312 1124.76 241.976 1134.36 250.232L1113.63 283.64C1104.03 277.688 1095.87 273.464 1089.15 270.968C1082.62 268.472 1076.76 267.224 1071.58 267.224C1069.08 267.224 1066.87 267.512 1064.95 268.088C1063.23 268.664 1061.88 269.528 1060.92 270.68C1059.96 271.832 1059.48 273.368 1059.48 275.288C1059.48 277.208 1060.15 278.84 1061.5 280.184C1062.84 281.336 1064.95 282.488 1067.83 283.64C1070.71 284.6 1074.36 285.752 1078.78 287.096C1091.83 290.936 1102.49 294.872 1110.75 298.904C1119 302.744 1125.05 307.448 1128.89 313.016C1132.92 318.584 1134.94 325.88 1134.94 334.904C1134.94 350.84 1129.27 363.32 1117.95 372.344C1106.81 381.368 1091.55 385.88 1072.15 385.88ZM1230.26 385.88C1216.82 385.88 1204.92 383.768 1194.55 379.544C1184.18 375.32 1175.44 369.56 1168.34 362.264C1161.43 354.776 1156.15 346.328 1152.5 336.92C1149.04 327.512 1147.32 317.624 1147.32 307.256C1147.32 296.888 1149.04 287 1152.5 277.592C1156.15 267.992 1161.43 259.544 1168.34 252.248C1175.44 244.952 1184.18 239.192 1194.55 234.968C1204.92 230.744 1216.82 228.632 1230.26 228.632C1243.89 228.632 1255.8 230.744 1265.97 234.968C1276.34 239.192 1284.98 244.952 1291.89 252.248C1299 259.544 1304.28 267.992 1307.73 277.592C1311.38 287 1313.2 296.888 1313.2 307.256C1313.2 317.624 1311.38 327.512 1307.73 336.92C1304.28 346.328 1299 354.776 1291.89 362.264C1284.98 369.56 1276.34 375.32 1265.97 379.544C1255.8 383.768 1243.89 385.88 1230.26 385.88ZM1203.48 307.256C1203.48 313.976 1204.63 319.832 1206.93 324.824C1209.24 329.624 1212.4 333.368 1216.44 336.056C1220.47 338.552 1225.08 339.8 1230.26 339.8C1235.44 339.8 1240.05 338.552 1244.08 336.056C1248.12 333.368 1251.28 329.624 1253.59 324.824C1255.89 319.832 1257.04 313.976 1257.04 307.256C1257.04 300.536 1255.89 294.776 1253.59 289.976C1251.28 284.984 1248.12 281.24 1244.08 278.744C1240.05 276.056 1235.44 274.712 1230.26 274.712C1225.08 274.712 1220.47 276.056 1216.44 278.744C1212.4 281.24 1209.24 284.984 1206.93 289.976C1204.63 294.776 1203.48 300.536 1203.48 307.256ZM1435.39 278.168C1424.83 278.168 1415.23 279.32 1406.59 281.624C1397.95 283.928 1391.52 287.768 1387.29 293.144V383H1332.57V231.512H1382.69V260.312C1388.06 250.136 1394.78 242.36 1402.85 236.984C1410.91 231.416 1419.45 228.632 1428.48 228.632C1430.59 228.632 1432.03 228.632 1432.8 228.632C1433.76 228.632 1434.62 228.728 1435.39 228.92V278.168ZM1663.8 383H1609.08V297.752C1609.08 290.264 1607.35 284.888 1603.9 281.624C1600.63 278.168 1596.51 276.44 1591.51 276.44C1589.21 276.44 1586.33 277.304 1582.87 279.032C1579.61 280.76 1576.44 283.256 1573.37 286.52C1570.3 289.784 1567.9 293.624 1566.17 298.04V383H1511.45V172.76H1566.17V253.976C1571.55 245.72 1578.55 239.48 1587.19 235.256C1596.03 230.84 1605.72 228.632 1616.28 228.632C1627.03 228.632 1635.58 230.456 1641.91 234.104C1648.25 237.56 1652.95 242.072 1656.03 247.64C1659.1 253.208 1661.11 259.16 1662.07 265.496C1663.23 271.832 1663.8 277.784 1663.8 283.352V383ZM1764.92 385.88C1751.48 385.88 1739.57 383.768 1729.2 379.544C1718.84 375.32 1710.1 369.56 1703 362.264C1696.08 354.776 1690.8 346.328 1687.16 336.92C1683.7 327.512 1681.97 317.624 1681.97 307.256C1681.97 296.888 1683.7 287 1687.16 277.592C1690.8 267.992 1696.08 259.544 1703 252.248C1710.1 244.952 1718.84 239.192 1729.2 234.968C1739.57 230.744 1751.48 228.632 1764.92 228.632C1778.55 228.632 1790.45 230.744 1800.63 234.968C1811 239.192 1819.64 244.952 1826.55 252.248C1833.65 259.544 1838.93 267.992 1842.39 277.592C1846.04 287 1847.86 296.888 1847.86 307.256C1847.86 317.624 1846.04 327.512 1842.39 336.92C1838.93 346.328 1833.65 354.776 1826.55 362.264C1819.64 369.56 1811 375.32 1800.63 379.544C1790.45 383.768 1778.55 385.88 1764.92 385.88ZM1738.13 307.256C1738.13 313.976 1739.28 319.832 1741.59 324.824C1743.89 329.624 1747.06 333.368 1751.09 336.056C1755.12 338.552 1759.73 339.8 1764.92 339.8C1770.1 339.8 1774.71 338.552 1778.74 336.056C1782.77 333.368 1785.94 329.624 1788.24 324.824C1790.55 319.832 1791.7 313.976 1791.7 307.256C1791.7 300.536 1790.55 294.776 1788.24 289.976C1785.94 284.984 1782.77 281.24 1778.74 278.744C1774.71 276.056 1770.1 274.712 1764.92 274.712C1759.73 274.712 1755.12 276.056 1751.09 278.744C1747.06 281.24 1743.89 284.984 1741.59 289.976C1739.28 294.776 1738.13 300.536 1738.13 307.256ZM1857.49 350.744L1926.61 268.952H1861.81V231.512H1983.64V263.768L1914.8 345.56H1986.23V383H1857.49V350.744ZM1999.8 350.744L2068.92 268.952H2004.12V231.512H2125.95V263.768L2057.12 345.56H2128.54V383H1999.8V350.744ZM2141.25 337.208C2141.25 327.032 2144.04 318.104 2149.61 310.424C2155.17 302.552 2162.85 296.408 2172.65 291.992C2182.63 287.576 2193.96 285.368 2206.63 285.368C2212.58 285.368 2218.15 285.848 2223.33 286.808C2228.71 287.768 2233.32 289.208 2237.16 291.128V286.52C2237.16 279.416 2235.05 274.136 2230.82 270.68C2226.79 267.224 2220.17 265.496 2210.95 265.496C2202.5 265.496 2194.53 266.936 2187.05 269.816C2179.75 272.504 2172.07 276.536 2164.01 281.912L2148.17 247.928C2158.34 241.4 2169 236.6 2180.13 233.528C2191.46 230.264 2203.56 228.632 2216.42 228.632C2240.42 228.632 2258.95 234.104 2272.01 245.048C2285.25 255.8 2291.88 271.832 2291.88 293.144V322.52C2291.88 327.704 2292.65 331.352 2294.18 333.464C2295.72 335.384 2298.41 336.536 2302.25 336.92V383C2297.83 383.96 2293.61 384.632 2289.57 385.016C2285.73 385.592 2282.28 385.88 2279.21 385.88C2269.41 385.88 2261.93 384.152 2256.74 380.696C2251.75 377.048 2248.49 371.768 2246.95 364.856L2245.8 359.384C2239.08 368.024 2231.3 374.648 2222.47 379.256C2213.64 383.672 2204.23 385.88 2194.25 385.88C2184.26 385.88 2175.24 383.768 2167.17 379.544C2159.11 375.32 2152.77 369.56 2148.17 362.264C2143.56 354.776 2141.25 346.424 2141.25 337.208ZM2229.96 340.952C2232.07 339.416 2233.8 337.784 2235.14 336.056C2236.49 334.136 2237.16 332.216 2237.16 330.296V319.064C2234.09 317.912 2230.53 316.952 2226.5 316.184C2222.66 315.416 2219.21 315.032 2216.13 315.032C2209.61 315.032 2204.04 316.664 2199.43 319.928C2195.01 323.192 2192.81 327.32 2192.81 332.312C2192.81 335 2193.57 337.496 2195.11 339.8C2196.65 341.912 2198.76 343.64 2201.45 344.984C2204.13 346.136 2207.21 346.712 2210.66 346.712C2213.93 346.712 2217.29 346.232 2220.74 345.272C2224.39 344.12 2227.46 342.68 2229.96 340.952ZM2233.7 222.872L2199.14 213.656L2213.54 172.76H2262.21L2233.7 222.872ZM2313.66 337.208C2313.66 327.032 2316.44 318.104 2322.01 310.424C2327.58 302.552 2335.26 296.408 2345.05 291.992C2355.04 287.576 2366.36 285.368 2379.04 285.368C2384.99 285.368 2390.56 285.848 2395.74 286.808C2401.12 287.768 2405.72 289.208 2409.56 291.128V286.52C2409.56 279.416 2407.45 274.136 2403.23 270.68C2399.2 267.224 2392.57 265.496 2383.36 265.496C2374.91 265.496 2366.94 266.936 2359.45 269.816C2352.16 272.504 2344.48 276.536 2336.41 281.912L2320.57 247.928C2330.75 241.4 2341.4 236.6 2352.54 233.528C2363.87 230.264 2375.96 228.632 2388.83 228.632C2412.83 228.632 2431.36 234.104 2444.41 245.048C2457.66 255.8 2464.28 271.832 2464.28 293.144V322.52C2464.28 327.704 2465.05 331.352 2466.59 333.464C2468.12 335.384 2470.81 336.536 2474.65 336.92V383C2470.24 383.96 2466.01 384.632 2461.98 385.016C2458.14 385.592 2454.68 385.88 2451.61 385.88C2441.82 385.88 2434.33 384.152 2429.15 380.696C2424.16 377.048 2420.89 371.768 2419.36 364.856L2418.2 359.384C2411.48 368.024 2403.71 374.648 2394.88 379.256C2386.04 383.672 2376.64 385.88 2366.65 385.88C2356.67 385.88 2347.64 383.768 2339.58 379.544C2331.52 375.32 2325.18 369.56 2320.57 362.264C2315.96 354.776 2313.66 346.424 2313.66 337.208ZM2402.36 340.952C2404.48 339.416 2406.2 337.784 2407.55 336.056C2408.89 334.136 2409.56 332.216 2409.56 330.296V319.064C2406.49 317.912 2402.94 316.952 2398.91 316.184C2395.07 315.416 2391.61 315.032 2388.54 315.032C2382.01 315.032 2376.44 316.664 2371.84 319.928C2367.42 323.192 2365.21 327.32 2365.21 332.312C2365.21 335 2365.98 337.496 2367.52 339.8C2369.05 341.912 2371.16 343.64 2373.85 344.984C2376.54 346.136 2379.61 346.712 2383.07 346.712C2386.33 346.712 2389.69 346.232 2393.15 345.272C2396.8 344.12 2399.87 342.68 2402.36 340.952ZM2486.35 306.968C2486.35 291.992 2489.14 278.648 2494.71 266.936C2500.47 255.032 2508.34 245.72 2518.32 239C2528.31 232.088 2539.73 228.632 2552.59 228.632C2562.39 228.632 2571.41 230.936 2579.67 235.544C2587.92 239.96 2594.16 246.104 2598.39 253.976V172.76H2653.11V322.52C2653.11 327.704 2653.87 331.352 2655.41 333.464C2656.95 335.384 2659.63 336.536 2663.47 336.92V383C2654.07 384.92 2646.39 385.88 2640.43 385.88C2631.22 385.88 2623.92 384.152 2618.55 380.696C2613.17 377.24 2609.71 371.96 2608.18 364.856L2607.03 359.384C2601.84 368.6 2594.83 375.32 2586 379.544C2577.17 383.768 2567.76 385.88 2557.78 385.88C2547.41 385.88 2537.81 383.96 2528.98 380.12C2520.34 376.28 2512.75 370.904 2506.23 363.992C2499.89 356.888 2494.99 348.536 2491.54 338.936C2488.08 329.144 2486.35 318.488 2486.35 306.968ZM2598.67 324.248V297.176C2596.95 292.76 2594.55 288.92 2591.47 285.656C2588.59 282.2 2585.33 279.512 2581.68 277.592C2578.03 275.672 2574.29 274.712 2570.45 274.712C2566.42 274.712 2562.67 275.576 2559.22 277.304C2555.95 279.032 2553.07 281.432 2550.58 284.504C2548.08 287.576 2546.16 291.128 2544.82 295.16C2543.47 299.192 2542.8 303.512 2542.8 308.12C2542.8 312.92 2543.47 317.24 2544.82 321.08C2546.35 324.92 2548.47 328.28 2551.15 331.16C2553.84 333.848 2557.01 335.96 2560.66 337.496C2564.31 339.032 2568.34 339.8 2572.75 339.8C2575.44 339.8 2577.94 339.512 2580.24 338.936C2582.55 338.168 2584.75 337.208 2586.87 336.056C2588.98 334.712 2590.99 333.08 2592.91 331.16C2595.03 329.048 2596.95 326.744 2598.67 324.248ZM2677.6 337.208C2677.6 327.032 2680.38 318.104 2685.95 310.424C2691.52 302.552 2699.2 296.408 2708.99 291.992C2718.97 287.576 2730.3 285.368 2742.97 285.368C2748.93 285.368 2754.49 285.848 2759.68 286.808C2765.05 287.768 2769.66 289.208 2773.5 291.128V286.52C2773.5 279.416 2771.39 274.136 2767.17 270.68C2763.13 267.224 2756.51 265.496 2747.29 265.496C2738.85 265.496 2730.88 266.936 2723.39 269.816C2716.09 272.504 2708.41 276.536 2700.35 281.912L2684.51 247.928C2694.69 241.4 2705.34 236.6 2716.48 233.528C2727.81 230.264 2739.9 228.632 2752.77 228.632C2776.77 228.632 2795.29 234.104 2808.35 245.048C2821.6 255.8 2828.22 271.832 2828.22 293.144V322.52C2828.22 327.704 2828.99 331.352 2830.53 333.464C2832.06 335.384 2834.75 336.536 2838.59 336.92V383C2834.17 383.96 2829.95 384.632 2825.92 385.016C2822.08 385.592 2818.62 385.88 2815.55 385.88C2805.76 385.88 2798.27 384.152 2793.09 380.696C2788.09 377.048 2784.83 371.768 2783.29 364.856L2782.14 359.384C2775.42 368.024 2767.65 374.648 2758.81 379.256C2749.98 383.672 2740.57 385.88 2730.59 385.88C2720.61 385.88 2711.58 383.768 2703.52 379.544C2695.45 375.32 2689.12 369.56 2684.51 362.264C2679.9 354.776 2677.6 346.424 2677.6 337.208ZM2766.3 340.952C2768.41 339.416 2770.14 337.784 2771.49 336.056C2772.83 334.136 2773.5 332.216 2773.5 330.296V319.064C2770.43 317.912 2766.88 316.952 2762.85 316.184C2759.01 315.416 2755.55 315.032 2752.48 315.032C2745.95 315.032 2740.38 316.664 2735.77 319.928C2731.36 323.192 2729.15 327.32 2729.15 332.312C2729.15 335 2729.92 337.496 2731.45 339.8C2732.99 341.912 2735.1 343.64 2737.79 344.984C2740.48 346.136 2743.55 346.712 2747.01 346.712C2750.27 346.712 2753.63 346.232 2757.09 345.272C2760.73 344.12 2763.81 342.68 2766.3 340.952ZM2770.05 222.872L2735.49 213.656L2749.89 172.76H2798.56L2770.05 222.872ZM2919.12 385.88C2905.88 385.88 2892.82 383.768 2879.96 379.544C2867.28 375.128 2856.53 368.792 2847.7 360.536L2866.42 326.84C2875.83 332.984 2884.85 337.784 2893.49 341.24C2902.32 344.696 2910.29 346.424 2917.4 346.424C2921.43 346.424 2924.4 345.944 2926.32 344.984C2928.24 343.832 2929.2 342.008 2929.2 339.512C2929.2 337.784 2928.53 336.344 2927.19 335.192C2925.84 334.04 2923.64 332.888 2920.56 331.736C2917.68 330.584 2913.94 329.336 2909.33 327.992C2897.43 323.768 2887.44 319.832 2879.38 316.184C2871.51 312.536 2865.56 308.12 2861.52 302.936C2857.68 297.56 2855.76 290.456 2855.76 281.624C2855.76 271.256 2858.36 262.136 2863.54 254.264C2868.72 246.2 2876.12 239.864 2885.72 235.256C2895.51 230.648 2907.22 228.344 2920.85 228.344C2931.03 228.344 2941.2 229.976 2951.38 233.24C2961.75 236.312 2971.73 241.976 2981.33 250.232L2960.6 283.64C2951 277.688 2942.84 273.464 2936.12 270.968C2929.59 268.472 2923.73 267.224 2918.55 267.224C2916.05 267.224 2913.84 267.512 2911.92 268.088C2910.2 268.664 2908.85 269.528 2907.89 270.68C2906.93 271.832 2906.45 273.368 2906.45 275.288C2906.45 277.208 2907.12 278.84 2908.47 280.184C2909.81 281.336 2911.92 282.488 2914.8 283.64C2917.68 284.6 2921.33 285.752 2925.75 287.096C2938.8 290.936 2949.46 294.872 2957.72 298.904C2965.97 302.744 2972.02 307.448 2975.86 313.016C2979.89 318.584 2981.91 325.88 2981.91 334.904C2981.91 350.84 2976.24 363.32 2964.92 372.344C2953.78 381.368 2938.52 385.88 2919.12 385.88ZM2994.28 337.208C2994.28 327.032 2997.07 318.104 3002.64 310.424C3008.2 302.552 3015.88 296.408 3025.68 291.992C3035.66 287.576 3046.99 285.368 3059.66 285.368C3065.61 285.368 3071.18 285.848 3076.36 286.808C3081.74 287.768 3086.35 289.208 3090.19 291.128V286.52C3090.19 279.416 3088.08 274.136 3083.85 270.68C3079.82 267.224 3073.2 265.496 3063.98 265.496C3055.53 265.496 3047.56 266.936 3040.08 269.816C3032.78 272.504 3025.1 276.536 3017.04 281.912L3001.2 247.928C3011.37 241.4 3022.03 236.6 3033.16 233.528C3044.49 230.264 3056.59 228.632 3069.45 228.632C3093.45 228.632 3111.98 234.104 3125.04 245.048C3138.28 255.8 3144.91 271.832 3144.91 293.144V322.52C3144.91 327.704 3145.68 331.352 3147.21 333.464C3148.75 335.384 3151.44 336.536 3155.28 336.92V383C3150.86 383.96 3146.64 384.632 3142.6 385.016C3138.76 385.592 3135.31 385.88 3132.24 385.88C3122.44 385.88 3114.96 384.152 3109.77 380.696C3104.78 377.048 3101.52 371.768 3099.98 364.856L3098.83 359.384C3092.11 368.024 3084.33 374.648 3075.5 379.256C3066.67 383.672 3057.26 385.88 3047.28 385.88C3037.29 385.88 3028.27 383.768 3020.2 379.544C3012.14 375.32 3005.8 369.56 3001.2 362.264C2996.59 354.776 2994.28 346.424 2994.28 337.208ZM3082.99 340.952C3085.1 339.416 3086.83 337.784 3088.17 336.056C3089.52 334.136 3090.19 332.216 3090.19 330.296V319.064C3087.12 317.912 3083.56 316.952 3079.53 316.184C3075.69 315.416 3072.24 315.032 3069.16 315.032C3062.64 315.032 3057.07 316.664 3052.46 319.928C3048.04 323.192 3045.84 327.32 3045.84 332.312C3045.84 335 3046.6 337.496 3048.14 339.8C3049.68 341.912 3051.79 343.64 3054.48 344.984C3057.16 346.136 3060.24 346.712 3063.69 346.712C3066.96 346.712 3070.32 346.232 3073.77 345.272C3077.42 344.12 3080.49 342.68 3082.99 340.952Z" fill="#434343"/>
</g>
<defs>
<clipPath id="clip0_1_2">
<rect width="3269" height="538" fill="white"/>
</clipPath>
</defs>
</svg>
